<?xml version="1.0" encoding="UTF-8" standalone="no"?>
<svg width="18px" height="18px" viewBox="0 0 18 18" version="1.1" xmlns="http://www.w3.org/2000/svg" xmlns:xlink="http://www.w3.org/1999/xlink">
    <!-- Generator: Sketch 44.1 (41455) - http://www.bohemiancoding.com/sketch -->
    <title>营销s</title>
    <desc>Created with Sketch.</desc>
    <defs></defs>
    <g id="零售基础UI规范" stroke="none" stroke-width="1" fill="none" fill-rule="evenodd">
        <g id="一级导航样式" transform="translate(-369.000000, -491.000000)" fill="#FFFFFF">
            <g id="营销s" transform="translate(369.000000, 491.000000)">
                <path d="M8.5,8.5 L5,8.5 C3.067,8.5 1.5,6.933 1.5,5 L1.5,5 C1.5,3.067 3.067,1.5 5,1.5 L5,1.5 C6.933,1.5 8.5,3.067 8.5,5 L8.5,8.5 Z" id="Fill-1"></path>
                <path d="M13,8.5 L9.5,8.5 L9.5,5 C9.5,3.067 11.067,1.5 13,1.5 L13,1.5 C14.933,1.5 16.5,3.067 16.5,5 L16.5,5 C16.5,6.933 14.933,8.5 13,8.5" id="Fill-3"></path>
                <path d="M1.5,13 C1.5,11.067 3.067,9.5 5,9.5 L8.5,9.5 L8.5,13 C8.5,14.933 6.933,16.5 5,16.5 C3.067,16.5 1.5,14.933 1.5,13 Z" id="Fill-5"></path>
                <path d="M13,16.5 L13,16.5 C11.067,16.5 9.5,14.933 9.5,13 L9.5,9.5 L13,9.5 C14.933,9.5 16.5,11.067 16.5,13 L16.5,13 C16.5,14.933 14.933,16.5 13,16.5" id="Fill-7"></path>
            </g>
        </g>
    </g>
</svg>