<?xml version="1.0" encoding="UTF-8" standalone="no"?>
<svg width="18px" height="18px" viewBox="0 0 18 18" version="1.1" xmlns="http://www.w3.org/2000/svg" xmlns:xlink="http://www.w3.org/1999/xlink">
    <!-- Generator: Sketch 44.1 (41455) - http://www.bohemiancoding.com/sketch -->
    <title>数据</title>
    <desc>Created with Sketch.</desc>
    <defs></defs>
    <g id="导航样式" stroke="none" stroke-width="1" fill="none" fill-rule="evenodd">
        <g id="一级导航样式" transform="translate(-292.000000, -395.000000)" fill-rule="nonzero" fill="#CACACA">
            <g id="数据" transform="translate(292.000000, 395.000000)">
                <path d="M3,16 L3,10 L6,10 L6,16 L3,16 Z M5,15 L5,11 L4,11 L4,15 L5,15 Z M7,16 L7,6 L11,6 L11,16 L7,16 Z M10,15 L10,7 L8,7 L8,15 L10,15 Z M12,16 L12,3 L16,3 L16,16 L12,16 Z M13,15 L15,15 L15,4 L13,4 L13,15 Z"></path>
            </g>
        </g>
    </g>
</svg>