<?xml version="1.0" encoding="UTF-8" standalone="no"?>
<svg width="18px" height="18px" viewBox="0 0 18 18" version="1.1" xmlns="http://www.w3.org/2000/svg" xmlns:xlink="http://www.w3.org/1999/xlink">
    <!-- Generator: Sketch 44.1 (41455) - http://www.bohemiancoding.com/sketch -->
    <title>客户</title>
    <desc>Created with Sketch.</desc>
    <defs></defs>
    <g id="导航样式" stroke="none" stroke-width="1" fill="none" fill-rule="evenodd">
        <g id="一级导航样式" transform="translate(-292.000000, -347.000000)" fill-rule="nonzero" fill="#CACACA">
            <g id="会员" transform="translate(292.000000, 347.000000)">
                <path d="M14.5,14.394 C14.5,13.748493 14.0609839,13.4237558 12.6370201,12.8743589 L12.5652499,12.8466782 C10.7923741,12.1628642 10.134,11.6869754 10.134,10.511 C10.134,10.3771597 10.1350516,10.283676 10.1391702,9.99300405 C10.1401279,9.92513372 10.1401279,9.92513372 10.1410422,9.85650704 C10.1427264,9.72682116 10.1947372,9.602864 10.2860946,9.51080381 C10.7159931,9.0775984 11.0879443,8.52285343 11.2528737,7.88401314 C11.2918606,7.73300062 11.3990817,7.60883003 11.5428013,7.54825402 C11.658295,7.49957485 11.7695127,7.37776493 11.8470229,7.18918214 C11.9823449,6.85737566 11.9561059,6.47503634 11.774277,6.25875001 C11.6850772,6.15264647 11.6439277,6.01427441 11.660653,5.87667053 C11.796316,4.76053435 11.697713,3.95927137 11.0917702,3.35587671 C10.5724039,2.83745989 9.85273333,2.52065439 9.0241573,2.49985218 C8.16897258,2.52065181 7.45009316,2.83691458 6.92918025,3.35592614 C6.67804881,3.60652833 6.50990049,3.91779903 6.41215152,4.28542001 C6.29365212,4.73108065 6.28551644,5.19507473 6.344357,5.74014149 C6.3536362,5.82344527 6.3536362,5.82344527 6.3624966,5.89791426 C6.37939631,6.03992228 6.33467933,6.18236983 6.23965152,6.28924169 C6.06556751,6.48502312 6.03901415,6.86011256 6.17293553,7.18664806 C6.25300633,7.37994396 6.36220324,7.50062783 6.47519872,7.54825402 C6.61896093,7.60884801 6.72620054,7.73307304 6.76515921,7.88414066 C6.93067323,8.52594397 7.30547339,9.08736661 7.72755339,9.50944661 C7.81973845,9.60163167 7.87227253,9.72617656 7.8739582,9.85653502 C7.87549116,9.97508376 7.87473404,10.0661283 7.87176735,10.2444006 C7.8702391,10.3357323 7.8702391,10.3357323 7.8692783,10.4227573 C7.86905046,10.4555586 7.86905046,10.4555586 7.869,10.488 C7.869,11.688481 7.20517246,12.1705002 5.40151447,12.8706099 L5.36543994,12.8846124 C3.93168151,13.4411824 3.5,13.7582823 3.5,14.394 L3.5,14.5 L14.5,14.5 L14.5,14.394 Z M11.134,10.511 C11.134,11.083943 11.5459711,11.3817258 12.9251176,11.9136749 L12.9969799,11.9413911 C14.805481,12.6391511 15.5,13.152882 15.5,14.394 L15.5,15 C15.5,15.2761424 15.2761424,15.5 15,15.5 L3,15.5 C2.72385763,15.5 2.5,15.2761424 2.5,15 L2.5,14.394 C2.5,13.160551 3.18222102,12.6594124 5.00356006,11.9523876 C6.45099006,11.390552 6.869,11.0870261 6.869,10.488 C6.8690577,10.4510904 6.8690577,10.4510904 6.86931096,10.4146759 C6.87035421,10.3202827 6.87035421,10.3202827 6.87190578,10.2277615 C6.87298962,10.1626327 6.87375878,10.1102002 6.87421629,10.0642855 C6.4436461,9.59729622 6.07075362,9.01995029 5.85769016,8.34599141 C5.59451891,8.16968123 5.3863004,7.90064632 5.2483965,7.56773139 C5.01227618,6.99202229 5.02705744,6.32046612 5.34694861,5.81750001 C5.27960273,5.17343955 5.29171584,4.60768504 5.44573142,4.02845273 C5.58665962,3.49844034 5.83927108,3.03081421 6.22309355,2.64780085 C6.92315638,1.950293 7.88470671,1.52726993 9.0241915,1.50014865 C10.1372602,1.52729667 11.0998807,1.95105089 11.7978075,2.64770229 C12.3118277,3.15956043 12.5868082,3.81375957 12.6786316,4.55993098 C12.7317352,4.99145988 12.723881,5.34770512 12.6755423,5.80323439 C12.9928797,6.31756159 13.0080172,6.99050435 12.7724629,7.56807376 C12.6362264,7.89954699 12.4254055,8.16951936 12.1601252,8.34639121 C11.9469333,9.01975548 11.5746032,9.59267579 11.1382357,10.0663717 C11.1348828,10.3059774 11.134,10.3930251 11.134,10.511 Z"></path>
            </g>
        </g>
    </g>
</svg>