<?xml version="1.0" encoding="UTF-8" standalone="no"?>
<svg width="18px" height="18px" viewBox="0 0 18 18" version="1.1" xmlns="http://www.w3.org/2000/svg" xmlns:xlink="http://www.w3.org/1999/xlink">
    <!-- Generator: Sketch 44.1 (41455) - http://www.bohemiancoding.com/sketch -->
    <title>营销</title>
    <desc>Created with Sketch.</desc>
    <defs></defs>
    <g id="导航样式" stroke="none" stroke-width="1" fill="none" fill-rule="evenodd">
        <g id="一级导航样式" transform="translate(-292.000000, -491.000000)">
            <g id="营销" transform="translate(292.000000, 491.000000)">
                <path d="M9,9 L5.5,9 C3.567,9 2,7.433 2,5.5 L2,5.5 C2,3.567 3.567,2 5.5,2 L5.5,2 C7.433,2 9,3.567 9,5.5 L9,9 Z" id="Fill-1" fill="#FF7070"></path>
                <path d="M13.5,9 L10,9 L10,5.5 C10,3.567 11.567,2 13.5,2 L13.5,2 C15.433,2 17,3.567 17,5.5 L17,5.5 C17,7.433 15.433,9 13.5,9" id="Fill-3" fill="#FFCC1C"></path>
                <path d="M2,13.5 C2,11.567 3.567,10 5.5,10 L9,10 L9,13.5 C9,15.433 7.433,17 5.5,17 C3.567,17 2,15.433 2,13.5 Z" id="Fill-5" fill="#628CFF"></path>
                <path d="M13.5,17 L13.5,17 C11.567,17 10,15.433 10,13.5 L10,10 L13.5,10 C15.433,10 17,11.567 17,13.5 L17,13.5 C17,15.433 15.433,17 13.5,17" id="Fill-7" fill="#1FD14F"></path>
            </g>
        </g>
    </g>
</svg>