<?xml version="1.0" encoding="UTF-8" standalone="no"?>
<svg width="18px" height="18px" viewBox="0 0 18 18" version="1.1" xmlns="http://www.w3.org/2000/svg" xmlns:xlink="http://www.w3.org/1999/xlink">
    <!-- Generator: Sketch 44.1 (41455) - http://www.bohemiancoding.com/sketch -->
    <title>客户s</title>
    <desc>Created with Sketch.</desc>
    <defs></defs>
    <g id="导航样式" stroke="none" stroke-width="1" fill="none" fill-rule="evenodd">
        <g id="一级导航样式" transform="translate(-369.000000, -347.000000)" fill-rule="nonzero" fill="#FFFFFF">
            <g id="会员s" transform="translate(369.000000, 347.000000)">
                <path d="M11.134,10.511 C11.134,11.083943 11.5459711,11.3817258 12.9251176,11.9136749 L12.9969799,11.9413911 C14.805481,12.6391511 15.5,13.152882 15.5,14.394 L15.5,15 C15.5,15.2761424 15.2761424,15.5 15,15.5 L3,15.5 C2.72385763,15.5 2.5,15.2761424 2.5,15 L2.5,14.394 C2.5,13.160551 3.18222102,12.6594124 5.00356006,11.9523876 C6.45099006,11.390552 6.869,11.0870261 6.869,10.488 C6.8690577,10.4510904 6.8690577,10.4510904 6.86931096,10.4146759 C6.87035421,10.3202827 6.87035421,10.3202827 6.87190578,10.2277615 C6.87298962,10.1626327 6.87375878,10.1102002 6.87421629,10.0642855 C6.4436461,9.59729622 6.07075362,9.01995029 5.85769016,8.34599141 C5.59451891,8.16968123 5.3863004,7.90064632 5.2483965,7.56773139 C5.01227618,6.99202229 5.02705744,6.32046612 5.34694861,5.81750001 C5.27960273,5.17343955 5.29171584,4.60768504 5.44573142,4.02845273 C5.58665962,3.49844034 5.83927108,3.03081421 6.22309355,2.64780085 C6.92315638,1.950293 7.88470671,1.52726993 9.0241915,1.50014865 C10.1372602,1.52729667 11.0998807,1.95105089 11.7978075,2.64770229 C12.3118277,3.15956043 12.5868082,3.81375957 12.6786316,4.55993098 C12.7317352,4.99145988 12.723881,5.34770512 12.6755423,5.80323439 C12.9928797,6.31756159 13.0080172,6.99050435 12.7724629,7.56807376 C12.6362264,7.89954699 12.4254055,8.16951936 12.1601252,8.34639121 C11.9469333,9.01975548 11.5746032,9.59267579 11.1382357,10.0663717 C11.1348828,10.3059774 11.134,10.3930251 11.134,10.511 Z"></path>
            </g>
        </g>
    </g>
</svg>