<?xml version="1.0" encoding="UTF-8" standalone="no"?>
<svg width="18px" height="18px" viewBox="0 0 18 18" version="1.1" xmlns="http://www.w3.org/2000/svg" xmlns:xlink="http://www.w3.org/1999/xlink">
    <!-- Generator: Sketch 44.1 (41455) - http://www.bohemiancoding.com/sketch -->
    <title>有赞</title>
    <desc>Created with Sketch.</desc>
    <defs></defs>
    <g id="导航样式" stroke="none" stroke-width="1" fill="none" fill-rule="evenodd">
        <g id="一级导航样式" transform="translate(-292.000000, -683.000000)" fill-rule="nonzero" fill="#CACACA">
            <g id="有赞" transform="translate(292.000000, 683.000000)">
                <path d="M11.444449,3.61358016 L11.2327853,6.30154267 C11.2281731,6.36011381 11.2425711,6.37402758 11.3032908,6.36700079 L13.8739949,6.06950579 C14.9747574,5.94211995 15.7115119,6.78439398 15.4329334,7.90246834 C15.4205221,7.93813167 15.3966137,8.02583178 15.3710132,8.16043017 C15.3529921,8.2551786 15.3375326,8.35814952 15.3255415,8.4688729 C15.3177655,8.54067386 15.3239102,8.5940959 15.3492056,8.68847759 C15.3636252,8.74046679 15.3636252,8.74046679 15.3823576,8.80532745 C15.4677965,9.10433876 15.4992382,9.33226453 15.471885,9.6649714 C15.446155,9.97793522 15.3912168,10.1873783 15.2877729,10.4438687 C15.2695773,10.4886304 15.2695773,10.4886304 15.2535492,10.5279466 C15.1991588,10.6622934 15.1793076,10.7332593 15.1688203,10.8512977 C15.155731,10.9986234 15.162113,11.0613613 15.1962243,11.2173158 C15.247589,11.4521849 15.2637018,11.5978987 15.2462937,11.8347908 C15.2228631,12.1536386 15.1545038,12.3932238 15.0379532,12.6377102 C15.0219016,12.6713814 14.9515591,12.810412 14.9394158,12.8376817 C14.9272728,12.8649507 14.9221108,12.8807651 14.9201036,12.8926535 C14.90378,12.9893378 14.9044549,13.0723116 14.91407,13.1353058 C14.9155704,13.1451359 14.9176772,13.1547812 14.9299162,13.2264658 C15.0068183,14.0461885 14.435292,14.8000518 13.6278153,14.9220974 L3.06154629,16.519131 C2.49823577,16.6042723 2,16.1768763 2,15.598936 L2,10.0959004 C2,9.5674961 2.3992178,9.10607896 2.91787444,9.02737709 C3.00856006,9.01371179 3.1676879,8.98960533 3.37222858,8.95840061 C3.71311522,8.90639494 4.05398188,8.85388226 4.37199075,8.80417715 C4.41414636,8.79758514 4.41414636,8.79758514 4.45625412,8.79098794 C5.15794821,8.6809956 5.64100237,8.6010114 5.7571413,8.57439789 C6.39777773,8.42759456 7.01023027,7.41291997 7.47484255,5.80959657 C7.66815834,5.14248606 7.82308797,4.42384991 7.94256279,3.70467161 C8.01424644,3.2731721 8.05795118,2.9390308 8.07956756,2.73469176 C8.16007674,2.15793874 8.63763118,1.64478772 9.20384826,1.52254888 C9.21852378,1.51938062 9.23325886,1.51647498 9.24804814,1.51383763 C9.25511623,1.51257719 9.31562831,1.84040488 9.42958438,2.4973207 L9.35313379,2.50889169 L9.20348555,1.52015239 C9.21837623,1.51789865 9.23323084,1.51579411 9.24804814,1.51383763 C10.5565178,1.3591231 11.5471817,2.30895496 11.444449,3.61358016 Z M9.07206862,2.85568531 C9.06650518,2.90902614 9.05525336,3.00547145 9.03779714,3.13893168 C9.00895593,3.359435 8.97288261,3.60465965 8.92904293,3.86855244 C8.80361473,4.62356708 8.64072544,5.37912387 8.435328,6.08792677 C7.87325619,8.02757175 7.11124835,9.29002058 5.98050419,9.54913325 C5.82947403,9.58374217 5.35356267,9.66254366 4.61111564,9.77892412 C4.56878444,9.78555633 4.56878444,9.78555633 4.52641681,9.7921815 C4.20706442,9.8420966 3.86504402,9.89478703 3.52304359,9.94696261 C3.31785203,9.97826663 3.15829924,10.0024375 3.06739048,10.0161363 C3.03667955,10.0207964 3,10.0631907 3,10.0959004 L3,15.5170755 L13.4783682,13.9333277 C13.7548493,13.8915391 13.9622537,13.6179654 13.9504242,13.4072816 C13.9403732,13.3694534 13.9332493,13.3368386 13.9255191,13.2861933 C13.9005656,13.1227087 13.8990279,12.9336604 13.9340585,12.7261752 C13.9514931,12.6229106 13.9819837,12.5294994 14.0258958,12.4308878 C14.0501571,12.3764053 14.1288608,12.220849 14.135277,12.2073898 C14.2008296,12.0698812 14.2351647,11.9495438 14.2489829,11.7615031 C14.2581548,11.6366901 14.2518646,11.5798055 14.2204152,11.4360003 C14.1653532,11.1842606 14.1493105,11.0265535 14.1727439,10.7628002 C14.1932683,10.5317897 14.2382472,10.3709951 14.3266311,10.1526829 C14.344349,10.1092106 14.344349,10.1092106 14.360357,10.0698371 C14.4286078,9.90060832 14.4585109,9.78660737 14.4752475,9.5830338 C14.4914601,9.38583384 14.4758277,9.27251182 14.4208397,9.08006984 C14.4030736,9.01867188 14.4030736,9.01867188 14.383295,8.94735322 C14.3284712,8.74279599 14.3086713,8.57065574 14.3313547,8.36120395 C14.3462609,8.22356379 14.3656824,8.09420255 14.3886247,7.97358038 C14.4236942,7.78919741 14.460456,7.65434858 14.4753215,7.61814706 C14.5737019,7.22014663 14.3950283,7.01588303 13.9889528,7.06287616 L11.4182487,7.36037116 C10.7315433,7.4398402 10.1818818,6.90866508 10.2358713,6.22304066 L10.447535,3.53507815 C10.5003324,2.86459315 10.0542412,2.43007754 9.40663487,2.50187155 C9.25504436,2.53886013 9.09235894,2.71240964 9.07206862,2.85568531 Z M6,9.01202811 L6,16 L5,16 L5,9.01202811 L6,9.01202811 Z"></path>
            </g>
        </g>
    </g>
</svg>