<?xml version="1.0" encoding="UTF-8" standalone="no"?>
<svg width="18px" height="18px" viewBox="0 0 18 18" version="1.1" xmlns="http://www.w3.org/2000/svg" xmlns:xlink="http://www.w3.org/1999/xlink">
    <!-- Generator: Sketch 44.1 (41455) - http://www.bohemiancoding.com/sketch -->
    <title>网店s</title>
    <desc>Created with Sketch.</desc>
    <defs></defs>
    <g id="导航样式" stroke="none" stroke-width="1" fill="none" fill-rule="evenodd">
        <g id="一级导航样式" transform="translate(-369.000000, -587.000000)" fill-rule="nonzero" fill="#FFFFFF">
            <g id="网店s" transform="translate(369.000000, 587.000000)">
                <path d="M16.0627625,5.81700848 L16.0627625,13.2537383 C16.0627625,14.7478175 14.7899925,15.9583333 13.2433653,15.9583333 L4.82026835,15.9583333 C3.27353041,15.9583333 2,14.7477209 2,13.2537383 L2,5.81700848 L9.01136199,1 L16.0627625,5.81700848 Z M9.1723125,11.8410833 C7.90916909,11.8410833 6.85659848,11.0151583 6.57466797,9.91189266 L12.8441875,9.81237648 L12.8441875,9.32025 C12.8441875,7.37043596 11.1943029,5.79941667 9.1723125,5.79941667 C7.14972917,5.79941667 5.5004375,7.37017063 5.5004375,9.32025 C5.5004375,11.2697614 7.15001118,12.8410833 9.1723125,12.8410833 C10.1536783,12.8410833 11.0759871,12.4693695 11.7597651,11.8181523 L11.0701099,11.0940144 C10.5716024,11.5687834 9.89596284,11.8410833 9.1723125,11.8410833 Z M11.7933007,8.82893125 C11.5511638,7.67565635 10.4732815,6.79941667 9.1723125,6.79941667 C7.839612,6.79941667 6.74173387,7.71798433 6.53532307,8.91239121 L11.7933007,8.82893125 Z"></path>
            </g>
        </g>
    </g>
</svg>