<?xml version="1.0" encoding="UTF-8" standalone="no"?>
<svg width="18px" height="18px" viewBox="0 0 18 18" version="1.1" xmlns="http://www.w3.org/2000/svg" xmlns:xlink="http://www.w3.org/1999/xlink">
    <!-- Generator: Sketch 44.1 (41455) - http://www.bohemiancoding.com/sketch -->
    <title>网店</title>
    <desc>Created with Sketch.</desc>
    <defs></defs>
    <g id="导航样式" stroke="none" stroke-width="1" fill="none" fill-rule="evenodd">
        <g id="一级导航样式" transform="translate(-292.000000, -587.000000)" fill-rule="nonzero" fill="#CACACA">
            <g id="网店" transform="translate(292.000000, 587.000000)">
                <path d="M16.0622375,5.75299555 L16.0622375,13.2366667 C16.0622375,14.7401766 14.7838346,15.9583333 13.2303625,15.9583333 L4.7699875,15.9583333 C3.21640417,15.9583333 1.9372375,14.7400794 1.9372375,13.2366667 L1.9372375,5.75299555 L8.97962965,0.905581687 L16.0622375,5.75299555 Z M2.9372375,6.27867112 L2.9372375,13.2366667 C2.9372375,14.1765873 3.75807083,14.9583333 4.7699875,14.9583333 L13.2303625,14.9583333 C14.2420586,14.9583333 15.0622375,14.1768063 15.0622375,13.2366667 L15.0622375,6.27867112 L8.73986902,1.92686338 L9.0233625,1.515 L9.31159093,1.92356379 L8.9997375,2.14356621 L8.68788407,1.92356379 L8.9761125,1.515 L9.25960598,1.92686338 L2.9372375,6.27867112 Z M9.10955,11.8410833 C9.83320034,11.8410833 10.5088399,11.5687834 11.0073474,11.0940144 L11.6970026,11.8181523 C11.0132246,12.4693695 10.0909158,12.8410833 9.10955,12.8410833 C7.08724868,12.8410833 5.437675,11.2697614 5.437675,9.32025 C5.437675,7.37017063 7.08696667,5.79941667 9.10955,5.79941667 C11.1315404,5.79941667 12.781425,7.37043596 12.781425,9.32025 L12.781425,9.81237648 L6.51190547,9.91189266 C6.79383598,11.0151583 7.84640659,11.8410833 9.10955,11.8410833 Z M11.7305382,8.82893125 C11.4884013,7.67565635 10.410519,6.79941667 9.10955,6.79941667 C7.7768495,6.79941667 6.67897137,7.71798433 6.47256057,8.91239121 L11.7305382,8.82893125 Z"></path>
            </g>
        </g>
    </g>
</svg>