<?xml version="1.0" encoding="UTF-8" standalone="no"?>
<svg width="18px" height="18px" viewBox="0 0 18 18" version="1.1" xmlns="http://www.w3.org/2000/svg" xmlns:xlink="http://www.w3.org/1999/xlink">
    <!-- Generator: Sketch 44.1 (41455) - http://www.bohemiancoding.com/sketch -->
    <title>设置</title>
    <desc>Created with Sketch.</desc>
    <defs></defs>
    <g id="零售基础UI规范" stroke="none" stroke-width="1" fill="none" fill-rule="evenodd">
        <g id="有赞零售web_-UI调整" transform="translate(-352.000000, -2504.000000)" fill-rule="nonzero" fill="#CACACA">
            <g id="设置" transform="translate(352.000000, 2504.000000)">
                <path d="M8.6857866,10.7502503 C9.38607404,10.7502503 9.95195288,10.1896925 9.95195288,9.5 C9.95195288,8.81119861 9.38596154,8.25075097 8.6857866,8.25075097 C7.98561166,8.25075097 7.41962032,8.81119861 7.41962032,9.5 C7.41962032,10.1896925 7.98549916,10.7502503 8.6857866,10.7502503 Z M8.6857866,11.7502503 C7.43531821,11.7502503 6.41962032,10.7441032 6.41962032,9.5 C6.41962032,8.25669853 7.43551826,7.25075097 8.6857866,7.25075097 C9.93605494,7.25075097 10.9519529,8.25669853 10.9519529,9.5 C10.9519529,10.7441032 9.93625498,11.7502503 8.6857866,11.7502503 Z M14.4832751,9.5 C14.4832751,9.72998062 14.46802,9.96103641 14.4383351,10.1950836 L16.3715732,11.3007773 L14.1019144,15.1957116 L12.1707142,14.0911835 C11.795449,14.3709342 11.3863732,14.6049966 10.9519529,14.7880762 L10.9519529,17 L6.41962032,17 L6.41962032,14.7880762 C5.98520005,14.6049966 5.57612421,14.3709342 5.20085898,14.0911835 L3.26965877,15.1957116 L1,11.3007773 L2.9332381,10.1950836 C2.9035532,9.96103641 2.88829815,9.72998062 2.88829815,9.5 C2.88829815,9.27015605 2.90353932,9.03923098 2.93317248,8.80571342 L1.00010666,7.69903965 L3.26976376,3.80410819 L5.2007188,4.90957355 C5.57544963,4.62993056 5.98449129,4.39606586 6.41962032,4.21285457 L6.41962032,2 L10.9519529,2 L10.9519529,4.21285457 C11.3870819,4.39606586 11.7961236,4.62993056 12.1708544,4.90957355 L14.1018094,3.80410819 L16.3714665,7.69903965 L14.4384007,8.80571342 C14.4680339,9.03923098 14.4832751,9.27015605 14.4832751,9.5 Z M13.3351518,10.7161347 L13.3996673,10.3673009 C13.454895,10.0686866 13.4832751,9.78159326 13.4832751,9.5 C13.4832751,9.21832644 13.4548731,8.93123718 13.3997198,8.63398397 L13.3349924,8.28512963 L15.0001067,7.33185722 L13.7374312,5.16499494 L12.0693077,6.11999012 L11.8018565,5.89328145 C11.3580871,5.5171143 10.8453362,5.22383876 10.2861979,5.02736883 L9.95195288,4.90992185 L9.95195288,3 L7.41962032,3 L7.41962032,4.90992185 L7.08537529,5.02736883 C6.52623704,5.22383876 6.01348609,5.5171143 5.56971673,5.89328145 L5.30226552,6.11999012 L3.634142,5.16499494 L2.37146654,7.33185722 L4.03658083,8.28512963 L3.97185335,8.63398397 C3.9167001,8.93123718 3.88829815,9.21832644 3.88829815,9.5 C3.88829815,9.78159326 3.91667824,10.0686866 3.97190588,10.3673009 L4.03642144,10.7161347 L2.3715732,11.6683258 L3.63424699,13.8351852 L5.30199928,12.8813332 L5.56926163,13.1073345 C6.01464073,13.4839543 6.52788535,13.7777417 7.08537529,13.9736325 L7.41962032,14.0910794 L7.41962032,16 L9.95195288,16 L9.95195288,14.0910794 L10.2861979,13.9736325 C10.8436879,13.7777417 11.3569325,13.4839543 11.8023116,13.1073345 L12.0695739,12.8813332 L13.7373262,13.8351852 L15,11.6683258 L13.3351518,10.7161347 Z"></path>
            </g>
        </g>
    </g>
</svg>