<?xml version="1.0" encoding="UTF-8" standalone="no"?>
<svg width="18px" height="18px" viewBox="0 0 18 18" version="1.1" xmlns="http://www.w3.org/2000/svg" xmlns:xlink="http://www.w3.org/1999/xlink">
    <!-- Generator: Sketch 44.1 (41455) - http://www.bohemiancoding.com/sketch -->
    <title>资产</title>
    <desc>Created with Sketch.</desc>
    <defs></defs>
    <g id="导航样式" stroke="none" stroke-width="1" fill="none" fill-rule="evenodd">
        <g id="一级导航样式" transform="translate(-292.000000, -443.000000)" fill-rule="nonzero" fill="#CACACA">
            <g id="资产" transform="translate(292.000000, 443.000000)">
                <path d="M16,9 C16,5.13400675 12.8659932,2 9,2 C5.13400675,2 2,5.13400675 2,9 C2,12.8659932 5.13400675,16 9,16 C12.8659932,16 16,12.8659932 16,9 Z M1,9 C1,4.581722 4.581722,1 9,1 C13.418278,1 17,4.581722 17,9 C17,13.418278 13.418278,17 9,17 C4.581722,17 1,13.418278 1,9 Z M9.5,10 L9.5,9 L11.5,9 L12,9 L12,8 L11.5,8 L9.60092521,8 L11.4160251,5.2773501 L11.6933752,4.86132495 L10.861325,4.30662475 L10.5839749,4.7226499 L9,7.09861218 L7.41602515,4.7226499 L7.13867505,4.30662475 L6.30662475,4.86132495 L6.58397485,5.2773501 L8.39907479,8 L6.5,8 L6,8 L6,9 L6.5,9 L8.5,9 L8.5,10 L6.5,10 L6,10 L6,11 L6.5,11 L8.5,11 L8.5,13.5 L8.5,14 L9.5,14 L9.5,13.5 L9.5,11 L11.5,11 L12,11 L12,10 L11.5,10 L9.5,10 L9.5,10 Z"></path>
            </g>
        </g>
    </g>
</svg>