<?xml version="1.0" encoding="UTF-8" standalone="no"?>
<svg width="18px" height="18px" viewBox="0 0 18 18" version="1.1" xmlns="http://www.w3.org/2000/svg" xmlns:xlink="http://www.w3.org/1999/xlink">
    <!-- Generator: Sketch 44.1 (41455) - http://www.bohemiancoding.com/sketch -->
    <title>概况s</title>
    <desc>Created with Sketch.</desc>
    <defs></defs>
    <g id="导航样式" stroke="none" stroke-width="1" fill="none" fill-rule="evenodd">
        <g id="一级导航样式" transform="translate(-369.000000, -203.000000)" fill-rule="nonzero" fill="#FFFFFF">
            <g id="概况s" transform="translate(369.000000, 203.000000)">
                <path d="M9.25,13 L8.75,13 L6.5,16 L5,16 L7.25,13 L2,13 L2,3 L7,3 L7,2 L8,2 L8,3 L10,3 L10,2 L11,2 L11,3 L16,3 L16,13 L10.75,13 L13,16 L11.5,16 L9.25,13 Z M7.79170763,7.38321877 L9.86653571,9.6386979 L10.2082924,10 L10.5500491,9.6386979 L12,8.10582293 L11.3164866,7.38321874 L10.2082925,8.61678123 L8.13346429,6.3613021 L7.79170759,6 L7.44995089,6.3613021 L6,7.89417707 L6.6835134,8.61678126 L7.79170763,7.38321877 Z"></path>
            </g>
        </g>
    </g>
</svg>